<svg width="458" height="115" viewBox="0 0 458 115" fill="none" xmlns="http://www.w3.org/2000/svg">
<g clip-path="url(#clip0_7_2)">
<path d="M28.9925 98.16H79.4245V21.488L50.6245 83.184L21.8245 21.36V102L17.9845 101.872V12.272H21.8245L50.6245 74.096L79.4245 12.4L83.2645 12.272V102L28.9925 101.872V98.16ZM110.914 98.16H158.018L130.882 23.536L102.338 102H98.2415L130.882 12.272L163.521 102H110.914V98.16ZM231.733 12.4V16.24H201.653V102H197.812V16.24H167.733V12.4H231.733ZM298.456 30.448C296.493 25.4987 293.72 21.7013 290.136 19.056C286.552 16.3253 280.962 14.96 273.368 14.96C269.186 14.96 265.602 15.5147 262.616 16.624C259.629 17.648 256.941 19.44 254.552 22C252.162 24.56 250.37 28.272 249.176 33.136C247.981 37.9147 247.384 43.8453 247.384 50.928V63.472C247.384 70.5547 247.981 76.528 249.176 81.392C250.37 86.1707 252.162 89.84 254.552 92.4C256.941 94.96 259.629 96.7947 262.616 97.904C265.602 98.928 269.186 99.44 273.368 99.44C281.048 99.44 287.149 97.8187 291.672 94.576C296.194 91.248 298.456 87.7067 298.456 83.952V62.32H282.712V58.48H303.064V82.672C303.064 88.3893 300.461 93.2533 295.256 97.264C290.136 101.275 282.84 103.28 273.368 103.28C262.872 103.28 255.277 100.08 250.583 93.68C245.89 87.1947 243.544 77.1253 243.544 63.472V50.928C243.544 37.2747 245.89 27.248 250.583 20.848C255.277 14.3627 262.872 11.12 273.368 11.12C281.816 11.12 288.13 12.6987 292.312 15.856C296.493 18.928 299.736 23.3227 302.04 29.04L298.456 30.448ZM327.414 98.16H374.518L347.382 23.536L318.838 102H314.742L347.382 12.272L380.021 102H327.414V98.16ZM404.969 98.16H440.297L424.809 55.664L431.977 51.568C437.865 48.3253 440.809 43.1627 440.809 36.08C440.809 22.8533 430.739 16.24 410.601 16.24H398.825V102H394.985V12.4H410.601C421.865 12.4 430.355 14.4907 436.073 18.672C441.79 22.768 444.649 28.5707 444.649 36.08C444.649 44.6133 441.065 50.8853 433.897 54.896L429.545 57.328L445.801 102H404.969V98.16Z" fill="black"/>
<path d="M28.9925 98.16V96.16H26.9925V98.16H28.9925ZM79.4245 98.16V100.16H81.4245V98.16H79.4245ZM79.4245 21.488H81.4245L77.6122 20.642L79.4245 21.488ZM50.6245 83.184L48.8116 84.0285L50.6226 87.9163L52.4368 84.03L50.6245 83.184ZM21.8245 21.36L23.6374 20.5155L19.8245 21.36H21.8245ZM21.8245 102L21.7579 103.999L23.8245 104.068V102H21.8245ZM17.9845 101.872H15.9845V103.806L17.9179 103.871L17.9845 101.872ZM17.9845 12.272V10.272H15.9845V12.272H17.9845ZM21.8245 12.272L23.6374 11.4275L23.0992 10.272H21.8245V12.272ZM50.6245 74.096L48.8116 74.9405L50.6226 78.8283L52.4368 74.942L50.6245 74.096ZM79.4245 12.4L79.3579 10.4011L78.1313 10.442L77.6122 11.554L79.4245 12.4ZM83.2645 12.272H85.2645V10.2042L83.1979 10.2731L83.2645 12.272ZM83.2645 102L83.2598 104L85.2645 104.005V102H83.2645ZM28.9925 101.872H26.9925V103.867L28.9878 103.872L28.9925 101.872ZM28.9925 100.16H79.4245V96.16H28.9925V100.16ZM81.4245 98.16V21.488H77.4245V98.16H81.4245ZM77.6122 20.642L48.8122 82.338L52.4368 84.03L81.2368 22.334L77.6122 20.642ZM52.4374 82.3395L23.6374 20.5155L20.0116 22.2045L48.8116 84.0285L52.4374 82.3395ZM19.8245 21.36V102H23.8245V21.36H19.8245ZM21.8911 100.001L18.0511 99.8731L17.9179 103.871L21.7579 103.999L21.8911 100.001ZM19.9845 101.872V12.272H15.9845V101.872H19.9845ZM17.9845 14.272H21.8245V10.272H17.9845V14.272ZM20.0116 13.1165L48.8116 74.9405L52.4374 73.2515L23.6374 11.4275L20.0116 13.1165ZM52.4368 74.942L81.2368 13.246L77.6122 11.554L48.8122 73.25L52.4368 74.942ZM79.4911 14.3989L83.3311 14.2709L83.1979 10.2731L79.3579 10.4011L79.4911 14.3989ZM81.2645 12.272V102H85.2645V12.272H81.2645ZM83.2692 100L28.9972 99.872L28.9878 103.872L83.2598 104L83.2692 100ZM30.9925 101.872V98.16H26.9925V101.872H30.9925ZM110.914 98.16V96.16H108.914V98.16H110.914ZM158.018 98.16V100.16H160.873L159.897 97.4765L158.018 98.16ZM130.882 23.536L132.761 22.8525L130.882 17.6847L129.002 22.8523L130.882 23.536ZM102.338 102V104H103.738L104.217 102.684L102.338 102ZM98.2415 102L96.362 101.316L95.3858 104H98.2415V102ZM130.882 12.272L132.761 11.5883L130.882 6.42149L129.002 11.5883L130.882 12.272ZM163.521 102V104H166.377L165.401 101.316L163.521 102ZM110.914 102H108.914V104H110.914V102ZM110.914 100.16H158.018V96.16H110.914V100.16ZM159.897 97.4765L132.761 22.8525L129.002 24.2195L156.138 98.8435L159.897 97.4765ZM129.002 22.8523L100.458 101.316L104.217 102.684L132.761 24.2197L129.002 22.8523ZM102.338 100H98.2415V104H102.338V100ZM100.121 102.684L132.761 12.9557L129.002 11.5883L96.362 101.316L100.121 102.684ZM129.002 12.9557L161.642 102.684L165.401 101.316L132.761 11.5883L129.002 12.9557ZM163.521 100H110.914V104H163.521V100ZM112.914 102V98.16H108.914V102H112.914ZM231.733 12.4H233.733V10.4H231.733V12.4ZM231.733 16.24V18.24H233.733V16.24H231.733ZM201.653 16.24V14.24H199.653V16.24H201.653ZM201.653 102V104H203.653V102H201.653ZM197.812 102H195.812V104H197.812V102ZM197.812 16.24H199.812V14.24H197.812V16.24ZM167.733 16.24H165.733V18.24H167.733V16.24ZM167.733 12.4V10.4H165.733V12.4H167.733ZM229.733 12.4V16.24H233.733V12.4H229.733ZM231.733 14.24H201.653V18.24H231.733V14.24ZM199.653 16.24V102H203.653V16.24H199.653ZM201.653 100H197.812V104H201.653V100ZM199.812 102V16.24H195.812V102H199.812ZM197.812 14.24H167.733V18.24H197.812V14.24ZM169.733 16.24V12.4H165.733V16.24H169.733ZM167.733 14.4H231.733V10.4H167.733V14.4ZM298.456 30.448L296.596 31.1853L297.331 33.0385L299.187 32.3095L298.456 30.448ZM290.136 19.056L288.923 20.6469L288.936 20.6561L288.948 20.6651L290.136 19.056ZM262.616 16.624L263.264 18.5159L263.288 18.5077L263.312 18.4988L262.616 16.624ZM254.552 22L256.014 23.3646L256.014 23.3646L254.552 22ZM249.176 33.136L251.116 33.6211L251.118 33.613L249.176 33.136ZM249.176 81.392L247.233 81.8691L247.235 81.8771L249.176 81.392ZM254.552 92.4L253.089 93.7646L253.089 93.7646L254.552 92.4ZM262.616 97.904L261.919 99.7789L261.943 99.7877L261.967 99.7959L262.616 97.904ZM291.672 94.576L292.837 96.2014L292.847 96.1942L292.857 96.1869L291.672 94.576ZM298.456 62.32H300.456V60.32H298.456V62.32ZM282.712 62.32H280.712V64.32H282.712V62.32ZM282.712 58.48V56.48H280.712V58.48H282.712ZM303.064 58.48H305.064V56.48H303.064V58.48ZM295.256 97.264L294.035 95.6797L294.028 95.6846L294.022 95.6895L295.256 97.264ZM250.583 93.68L248.963 94.8526L248.971 94.8627L250.583 93.68ZM250.583 20.848L252.196 22.0308L252.204 22.0205L250.583 20.848ZM292.312 15.856L291.106 17.4521L291.117 17.46L291.127 17.4678L292.312 15.856ZM302.04 29.04L302.771 30.9015L304.649 30.1638L303.895 28.2924L302.04 29.04ZM300.315 29.7107C298.241 24.4822 295.262 20.3544 291.323 17.4469L288.948 20.6651C292.177 23.0483 294.744 26.5151 296.596 31.1853L300.315 29.7107ZM291.348 17.4651C287.248 14.3413 281.128 12.96 273.368 12.96V16.96C280.797 16.96 285.855 18.3094 288.923 20.6469L291.348 17.4651ZM273.368 12.96C269.019 12.96 265.186 13.5357 261.919 14.7491L263.312 18.4988C266.018 17.4936 269.354 16.96 273.368 16.96V12.96ZM261.967 14.7321C258.637 15.8737 255.678 17.8622 253.089 20.6354L256.014 23.3646C258.204 21.0178 260.62 19.4223 263.264 18.5159L261.967 14.7321ZM253.089 20.6354C250.388 23.53 248.476 27.5972 247.233 32.6589L251.118 33.613C252.264 28.9468 253.937 25.59 256.014 23.3646L253.089 20.6354ZM247.235 32.6509C245.988 37.6407 245.384 43.7465 245.384 50.928H249.384C249.384 43.9441 249.974 38.1886 251.116 33.6211L247.235 32.6509ZM245.384 50.928V63.472H249.384V50.928H245.384ZM245.384 63.472C245.384 70.6549 245.988 76.7994 247.233 81.869L251.118 80.9149C249.974 76.2566 249.384 70.4544 249.384 63.472H245.384ZM247.235 81.8771C248.481 86.8583 250.394 90.8763 253.089 93.7646L256.014 91.0354C253.931 88.8037 252.26 85.4831 251.116 80.9069L247.235 81.8771ZM253.089 93.7646C255.669 96.529 258.613 98.5509 261.919 99.7789L263.312 96.0291C260.645 95.0385 258.212 93.391 256.014 91.0354L253.089 93.7646ZM261.967 99.7959C265.218 100.91 269.033 101.44 273.368 101.44V97.44C269.34 97.44 265.987 96.9456 263.264 96.0121L261.967 99.7959ZM273.368 101.44C281.311 101.44 287.867 99.7646 292.837 96.2014L290.506 92.9506C286.431 95.8727 280.784 97.44 273.368 97.44V101.44ZM292.857 96.1869C297.627 92.6764 300.456 88.6116 300.456 83.952H296.456C296.456 86.8017 294.761 89.8196 290.486 92.9651L292.857 96.1869ZM300.456 83.952V62.32H296.456V83.952H300.456ZM298.456 60.32H282.712V64.32H298.456V60.32ZM284.712 62.32V58.48H280.712V62.32H284.712ZM282.712 60.48H303.064V56.48H282.712V60.48ZM301.064 58.48V82.672H305.064V58.48H301.064ZM301.064 82.672C301.064 87.671 298.832 91.9836 294.035 95.6797L296.476 98.8483C302.09 94.5231 305.064 89.1077 305.064 82.672H301.064ZM294.022 95.6895C289.383 99.3235 282.59 101.28 273.368 101.28V105.28C283.089 105.28 290.888 103.226 296.489 98.8385L294.022 95.6895ZM273.368 101.28C263.284 101.28 256.397 98.226 252.196 92.4973L248.971 94.8627C254.156 101.934 262.459 105.28 273.368 105.28V101.28ZM252.204 92.5075C247.878 86.5295 245.544 76.9709 245.544 63.472H241.544C241.544 77.2798 243.903 87.8598 248.963 94.8525L252.204 92.5075ZM245.544 63.472V50.928H241.544V63.472H245.544ZM245.544 50.928C245.544 37.4257 247.879 27.9181 252.196 22.0307L248.971 19.6653C243.901 26.5779 241.544 37.1236 241.544 50.928H245.544ZM252.204 22.0205C256.409 16.2101 263.294 13.12 273.368 13.12V9.12C262.449 9.12 254.145 12.5152 248.963 19.6755L252.204 22.0205ZM273.368 13.12C281.627 13.12 287.427 14.6741 291.106 17.4521L293.517 14.2599C288.833 10.7233 282.004 9.12 273.368 9.12V13.12ZM291.127 17.4678C294.957 20.2813 297.993 24.3495 300.184 29.7875L303.895 28.2924C301.478 22.2958 298.029 17.5747 293.496 14.2442L291.127 17.4678ZM301.308 27.1785L297.724 28.5865L299.187 32.3095L302.771 30.9015L301.308 27.1785ZM327.414 98.16V96.16H325.414V98.16H327.414ZM374.518 98.16V100.16H377.373L376.397 97.4765L374.518 98.16ZM347.382 23.536L349.261 22.8525L347.382 17.6847L345.502 22.8523L347.382 23.536ZM318.838 102V104H320.238L320.717 102.684L318.838 102ZM314.742 102L312.862 101.316L311.886 104H314.742V102ZM347.382 12.272L349.261 11.5883L347.382 6.42149L345.502 11.5883L347.382 12.272ZM380.021 102V104H382.877L381.901 101.316L380.021 102ZM327.414 102H325.414V104H327.414V102ZM327.414 100.16H374.518V96.16H327.414V100.16ZM376.397 97.4765L349.261 22.8525L345.502 24.2195L372.638 98.8435L376.397 97.4765ZM345.502 22.8523L316.958 101.316L320.717 102.684L349.261 24.2197L345.502 22.8523ZM318.838 100H314.742V104H318.838V100ZM316.621 102.684L349.261 12.9557L345.502 11.5883L312.862 101.316L316.621 102.684ZM345.502 12.9557L378.142 102.684L381.901 101.316L349.261 11.5883L345.502 12.9557ZM380.021 100H327.414V104H380.021V100ZM329.414 102V98.16H325.414V102H329.414ZM404.969 98.16V96.16H402.969V98.16H404.969ZM440.297 98.16V100.16H443.154L442.176 97.4752L440.297 98.16ZM424.809 55.664L423.816 53.9275L422.352 54.7643L422.929 56.3488L424.809 55.664ZM431.977 51.568L431.012 49.8161L430.998 49.8237L430.984 49.8315L431.977 51.568ZM398.825 16.24V14.24H396.825V16.24H398.825ZM398.825 102V104H400.825V102H398.825ZM394.985 102H392.985V104H394.985V102ZM394.985 12.4V10.4H392.985V12.4H394.985ZM436.073 18.672L434.892 20.2863L434.9 20.2921L434.908 20.2978L436.073 18.672ZM433.897 54.896L434.872 56.6419L434.873 56.6414L433.897 54.896ZM429.545 57.328L428.569 55.5821L427.083 56.4124L427.665 58.0119L429.545 57.328ZM445.801 102V104H448.657L447.68 101.316L445.801 102ZM404.969 102H402.969V104H404.969V102ZM404.969 100.16H440.297V96.16H404.969V100.16ZM442.176 97.4752L426.688 54.9791L422.929 56.3488L438.417 98.8448L442.176 97.4752ZM425.801 57.4005L432.969 53.3045L430.984 49.8315L423.816 53.9275L425.801 57.4005ZM432.941 53.3199C436.165 51.5447 438.66 49.1965 440.338 46.2547C442.012 43.3184 442.809 39.902 442.809 36.08H438.809C438.809 39.3406 438.133 42.0469 436.863 44.2733C435.597 46.4942 433.676 48.3486 431.012 49.8161L432.941 53.3199ZM442.809 36.08C442.809 28.8712 440.014 23.2457 434.354 19.5283C428.841 15.9073 420.825 14.24 410.601 14.24V18.24C420.515 18.24 427.603 19.8794 432.159 22.8717C436.568 25.7677 438.809 30.0622 438.809 36.08H442.809ZM410.601 14.24H398.825V18.24H410.601V14.24ZM396.825 16.24V102H400.825V16.24H396.825ZM398.825 100H394.985V104H398.825V100ZM396.985 102V12.4H392.985V102H396.985ZM394.985 14.4H410.601V10.4H394.985V14.4ZM410.601 14.4C421.672 14.4 429.666 16.4645 434.892 20.2863L437.253 17.0577C431.044 12.5168 422.057 10.4 410.601 10.4V14.4ZM434.908 20.2978C440.06 23.9894 442.649 29.1643 442.649 36.08H446.649C446.649 27.977 443.519 21.5466 437.237 17.0462L434.908 20.2978ZM442.649 36.08C442.649 40.062 441.814 43.4086 440.224 46.1917C438.636 48.9709 436.231 51.2978 432.92 53.1506L434.873 56.6414C438.73 54.4835 441.701 51.669 443.697 48.1763C445.691 44.6874 446.649 40.6313 446.649 36.08H442.649ZM432.921 53.1501L428.569 55.5821L430.52 59.0739L434.872 56.6419L432.921 53.1501ZM427.665 58.0119L443.921 102.684L447.68 101.316L431.424 56.6441L427.665 58.0119ZM445.801 100H404.969V104H445.801V100ZM406.969 102V98.16H402.969V102H406.969Z" fill="black"/>
</g>
<defs>
<clipPath id="clip0_7_2">
<rect width="458" height="115" fill="white"/>
</clipPath>
</defs>
</svg>
