<svg width="429" height="93" viewBox="0 0 429 93" fill="none" xmlns="http://www.w3.org/2000/svg">
<path d="M11.9925 87.16H62.4245V10.488L33.6245 72.184L4.8245 10.36V91L0.984501 90.872V1.272H4.8245L33.6245 63.096L62.4245 1.39999L66.2645 1.272V91L11.9925 90.872V87.16ZM93.9135 87.16H141.018L113.882 12.536L85.3375 91H81.2415L113.882 1.272L146.521 91H93.9135V87.16ZM214.733 1.39999V5.24H184.653V91H180.812V5.24H150.733V1.39999H214.733ZM281.456 19.448C279.493 14.4987 276.72 10.7013 273.136 8.056C269.552 5.32533 263.962 3.96 256.368 3.96C252.186 3.96 248.602 4.51466 245.616 5.62399C242.629 6.64799 239.941 8.44 237.552 11C235.162 13.56 233.37 17.272 232.176 22.136C230.981 26.9147 230.384 32.8453 230.384 39.928V52.472C230.384 59.5547 230.981 65.528 232.176 70.392C233.37 75.1707 235.162 78.84 237.552 81.4C239.941 83.96 242.629 85.7947 245.616 86.904C248.602 87.928 252.186 88.44 256.368 88.44C264.048 88.44 270.149 86.8187 274.672 83.576C279.194 80.248 281.456 76.7067 281.456 72.952V51.32H265.712V47.48H286.064V71.672C286.064 77.3893 283.461 82.2533 278.256 86.264C273.136 90.2747 265.84 92.28 256.368 92.28C245.872 92.28 238.277 89.08 233.583 82.68C228.89 76.1947 226.544 66.1253 226.544 52.472V39.928C226.544 26.2747 228.89 16.248 233.583 9.848C238.277 3.36266 245.872 0.119995 256.368 0.119995C264.816 0.119995 271.13 1.69866 275.312 4.856C279.493 7.928 282.736 12.3227 285.04 18.04L281.456 19.448ZM310.414 87.16H357.518L330.382 12.536L301.838 91H297.742L330.382 1.272L363.021 91H310.414V87.16ZM387.969 87.16H423.297L407.809 44.664L414.977 40.568C420.865 37.3253 423.809 32.1627 423.809 25.08C423.809 11.8533 413.739 5.24 393.601 5.24H381.825V91H377.985V1.39999H393.601C404.865 1.39999 413.355 3.49066 419.073 7.672C424.79 11.768 427.649 17.5707 427.649 25.08C427.649 33.6133 424.065 39.8853 416.897 43.896L412.545 46.328L428.801 91H387.969V87.16Z" fill="white"/>
<path d="M11.9925 87.16V85.16H9.9925V87.16H11.9925ZM62.4245 87.16V89.16H64.4245V87.16H62.4245ZM62.4245 10.488H64.4245L60.6122 9.64202L62.4245 10.488ZM33.6245 72.184L31.8116 73.0285L33.6226 76.9163L35.4368 73.03L33.6245 72.184ZM4.8245 10.36L6.63744 9.51545L2.8245 10.36H4.8245ZM4.8245 91L4.75787 92.9989L6.8245 93.0678V91H4.8245ZM0.984501 90.872H-1.0155V92.8064L0.91787 92.8709L0.984501 90.872ZM0.984501 1.272V-0.728004H-1.0155V1.272H0.984501ZM4.8245 1.272L6.63744 0.427456L6.09918 -0.728004H4.8245V1.272ZM33.6245 63.096L31.8116 63.9405L33.6226 67.8283L35.4368 63.942L33.6245 63.096ZM62.4245 1.39999L62.3579 -0.598896L61.1313 -0.55801L60.6122 0.554016L62.4245 1.39999ZM66.2645 1.272H68.2645V-0.79578L66.1979 -0.726894L66.2645 1.272ZM66.2645 91L66.2598 93L68.2645 93.0047V91H66.2645ZM11.9925 90.872H9.9925V92.8673L11.9878 92.872L11.9925 90.872ZM11.9925 89.16H62.4245V85.16H11.9925V89.16ZM64.4245 87.16V10.488H60.4245V87.16H64.4245ZM60.6122 9.64202L31.8122 71.338L35.4368 73.03L64.2368 11.334L60.6122 9.64202ZM35.4374 71.3395L6.63744 9.51545L3.01156 11.2045L31.8116 73.0285L35.4374 71.3395ZM2.8245 10.36V91H6.8245V10.36H2.8245ZM4.89113 89.0011L1.05113 88.8731L0.91787 92.8709L4.75787 92.9989L4.89113 89.0011ZM2.9845 90.872V1.272H-1.0155V90.872H2.9845ZM0.984501 3.272H4.8245V-0.728004H0.984501V3.272ZM3.01156 2.11654L31.8116 63.9405L35.4374 62.2515L6.63744 0.427456L3.01156 2.11654ZM35.4368 63.942L64.2368 2.24597L60.6122 0.554016L31.8122 62.25L35.4368 63.942ZM62.4911 3.39888L66.3311 3.27089L66.1979 -0.726894L62.3579 -0.598896L62.4911 3.39888ZM64.2645 1.272V91H68.2645V1.272H64.2645ZM66.2692 89L11.9972 88.872L11.9878 92.872L66.2598 93L66.2692 89ZM13.9925 90.872V87.16H9.9925V90.872H13.9925ZM93.9135 87.16V85.16H91.9135V87.16H93.9135ZM141.018 87.16V89.16H143.873L142.897 86.4765L141.018 87.16ZM113.882 12.536L115.761 11.8525L113.882 6.6847L112.002 11.8523L113.882 12.536ZM85.3375 91V93H86.7382L87.217 91.6837L85.3375 91ZM81.2415 91L79.362 90.3163L78.3858 93H81.2415V91ZM113.882 1.272L115.761 0.588295L113.882 -4.57851L112.002 0.588295L113.882 1.272ZM146.521 91V93H149.377L148.401 90.3163L146.521 91ZM93.9135 91H91.9135V93H93.9135V91ZM93.9135 89.16H141.018V85.16H93.9135V89.16ZM142.897 86.4765L115.761 11.8525L112.002 13.2195L139.138 87.8435L142.897 86.4765ZM112.002 11.8523L83.458 90.3163L87.217 91.6837L115.761 13.2197L112.002 11.8523ZM85.3375 89H81.2415V93H85.3375V89ZM83.121 91.6837L115.761 1.9557L112.002 0.588295L79.362 90.3163L83.121 91.6837ZM112.002 1.9557L144.642 91.6837L148.401 90.3163L115.761 0.588295L112.002 1.9557ZM146.521 89H93.9135V93H146.521V89ZM95.9135 91V87.16H91.9135V91H95.9135ZM214.733 1.39999H216.733V-0.600006H214.733V1.39999ZM214.733 5.24V7.24H216.733V5.24H214.733ZM184.652 5.24V3.24H182.652V5.24H184.652ZM184.652 91V93H186.652V91H184.652ZM180.812 91H178.812V93H180.812V91ZM180.812 5.24H182.812V3.24H180.812V5.24ZM150.732 5.24H148.732V7.24H150.732V5.24ZM150.732 1.39999V-0.600006H148.732V1.39999H150.732ZM212.733 1.39999V5.24H216.733V1.39999H212.733ZM214.733 3.24H184.652V7.24H214.733V3.24ZM182.652 5.24V91H186.652V5.24H182.652ZM184.652 89H180.812V93H184.652V89ZM182.812 91V5.24H178.812V91H182.812ZM180.812 3.24H150.732V7.24H180.812V3.24ZM152.732 5.24V1.39999H148.732V5.24H152.732ZM150.732 3.39999H214.733V-0.600006H150.732V3.39999ZM281.456 19.448L279.596 20.1852L280.331 22.0385L282.187 21.3095L281.456 19.448ZM273.135 8.056L271.923 9.64686L271.936 9.6561L271.948 9.66515L273.135 8.056ZM245.616 5.62399L246.264 7.51588L246.288 7.50767L246.312 7.49884L245.616 5.62399ZM237.552 11L239.014 12.3646L237.552 11ZM232.176 22.136L234.116 22.6211L234.118 22.613L232.176 22.136ZM232.176 70.392L230.233 70.869L230.235 70.8771L232.176 70.392ZM237.552 81.4L236.089 82.7646L237.552 81.4ZM245.616 86.904L244.919 88.7789L244.943 88.7877L244.967 88.7959L245.616 86.904ZM274.672 83.576L275.837 85.2014L275.847 85.1942L275.857 85.1869L274.672 83.576ZM281.456 51.32H283.456V49.32H281.456V51.32ZM265.711 51.32H263.711V53.32H265.711V51.32ZM265.711 47.48V45.48H263.711V47.48H265.711ZM286.064 47.48H288.064V45.48H286.064V47.48ZM278.255 86.264L277.035 84.6797L277.028 84.6846L277.022 84.6895L278.255 86.264ZM233.583 82.68L231.963 83.8526L231.971 83.8627L233.583 82.68ZM233.583 9.848L235.196 11.0308L235.204 11.0205L233.583 9.848ZM275.311 4.856L274.106 6.45208L274.117 6.45999L274.127 6.46776L275.311 4.856ZM285.039 18.04L285.771 19.9015L287.649 19.1638L286.895 17.2924L285.039 18.04ZM283.315 18.7107C281.241 13.4822 278.262 9.35435 274.323 6.44685L271.948 9.66515C275.177 12.0483 277.744 15.5151 279.596 20.1852L283.315 18.7107ZM274.348 6.46514C270.248 3.34129 264.128 1.96 256.367 1.96V5.96C263.797 5.96 268.855 7.30938 271.923 9.64686L274.348 6.46514ZM256.367 1.96C252.019 1.96 248.186 2.53569 244.919 3.74914L246.312 7.49884C249.018 6.49364 252.354 5.96 256.367 5.96V1.96ZM244.967 3.7321C241.637 4.87371 238.678 6.86219 236.089 9.63536L239.014 12.3646C241.204 10.0178 243.62 8.42228 246.264 7.51588L244.967 3.7321ZM236.089 9.63536C233.388 12.53 231.476 16.5972 230.233 21.6589L234.118 22.613C235.264 17.9468 236.937 14.59 239.014 12.3646L236.089 9.63536ZM230.235 21.6509C228.988 26.6407 228.384 32.7465 228.384 39.928H232.384C232.384 32.9441 232.974 27.1886 234.116 22.6211L230.235 21.6509ZM228.384 39.928V52.472H232.384V39.928H228.384ZM228.384 52.472C228.384 59.6549 228.988 65.7994 230.233 70.869L234.118 69.9149C232.974 65.2566 232.384 59.4544 232.384 52.472H228.384ZM230.235 70.8771C231.481 75.8583 233.394 79.8763 236.089 82.7646L239.014 80.0354C236.931 77.8037 235.26 74.4831 234.116 69.9069L230.235 70.8771ZM236.089 82.7646C238.669 85.529 241.613 87.5509 244.919 88.7789L246.312 85.0291C243.645 84.0385 241.212 82.391 239.014 80.0354L236.089 82.7646ZM244.967 88.7959C248.218 89.9104 252.033 90.44 256.367 90.44V86.44C252.34 86.44 248.987 85.9456 246.264 85.0121L244.967 88.7959ZM256.367 90.44C264.311 90.44 270.867 88.7646 275.837 85.2014L273.506 81.9506C269.431 84.8727 263.784 86.44 256.367 86.44V90.44ZM275.857 85.1869C280.627 81.6764 283.456 77.6116 283.456 72.952H279.456C279.456 75.8017 277.761 78.8195 273.486 81.9651L275.857 85.1869ZM283.456 72.952V51.32H279.456V72.952H283.456ZM281.456 49.32H265.711V53.32H281.456V49.32ZM267.711 51.32V47.48H263.711V51.32H267.711ZM265.711 49.48H286.064V45.48H265.711V49.48ZM284.064 47.48V71.672H288.064V47.48H284.064ZM284.064 71.672C284.064 76.671 281.832 80.9836 277.035 84.6797L279.476 87.8483C285.09 83.5231 288.064 78.1077 288.064 71.672H284.064ZM277.022 84.6895C272.383 88.3235 265.59 90.28 256.367 90.28V94.28C266.089 94.28 273.888 92.2258 279.489 87.8385L277.022 84.6895ZM256.367 90.28C246.284 90.28 239.397 87.226 235.196 81.4973L231.971 83.8627C237.156 90.934 245.459 94.28 256.367 94.28V90.28ZM235.204 81.5075C230.878 75.5295 228.543 65.9709 228.543 52.472H224.543C224.543 66.2798 226.903 76.8598 231.963 83.8525L235.204 81.5075ZM228.543 52.472V39.928H224.543V52.472H228.543ZM228.543 39.928C228.543 26.4257 230.879 16.9181 235.196 11.0307L231.971 8.66527C226.901 15.5779 224.543 26.1236 224.543 39.928H228.543ZM235.204 11.0205C239.409 5.2101 246.294 2.12 256.367 2.12V-1.88C245.449 -1.88 237.145 1.51522 231.963 8.67546L235.204 11.0205ZM256.367 2.12C264.627 2.12 270.427 3.67406 274.106 6.45208L276.517 3.25991C271.833 -0.276737 265.004 -1.88 256.367 -1.88V2.12ZM274.127 6.46776C277.957 9.28127 280.993 13.3495 283.184 18.7875L286.895 17.2924C284.478 11.2958 281.029 6.57473 276.496 3.24423L274.127 6.46776ZM284.308 16.1785L280.724 17.5865L282.187 21.3095L285.771 19.9015L284.308 16.1785ZM310.414 87.16V85.16H308.414V87.16H310.414ZM357.518 87.16V89.16H360.373L359.397 86.4765L357.518 87.16ZM330.382 12.536L332.261 11.8525L330.382 6.6847L328.502 11.8523L330.382 12.536ZM301.837 91V93H303.238L303.717 91.6837L301.837 91ZM297.741 91L295.862 90.3163L294.886 93H297.741V91ZM330.382 1.272L332.261 0.588295L330.382 -4.57851L328.502 0.588295L330.382 1.272ZM363.021 91V93H365.877L364.901 90.3163L363.021 91ZM310.414 91H308.414V93H310.414V91ZM310.414 89.16H357.518V85.16H310.414V89.16ZM359.397 86.4765L332.261 11.8525L328.502 13.2195L355.638 87.8435L359.397 86.4765ZM328.502 11.8523L299.958 90.3163L303.717 91.6837L332.261 13.2197L328.502 11.8523ZM301.837 89H297.741V93H301.837V89ZM299.621 91.6837L332.261 1.9557L328.502 0.588295L295.862 90.3163L299.621 91.6837ZM328.502 1.9557L361.142 91.6837L364.901 90.3163L332.261 0.588295L328.502 1.9557ZM363.021 89H310.414V93H363.021V89ZM312.414 91V87.16H308.414V91H312.414ZM387.969 87.16V85.16H385.969V87.16H387.969ZM423.297 87.16V89.16H426.154L425.176 86.4751L423.297 87.16ZM407.809 44.664L406.816 42.9275L405.352 43.7643L405.929 45.3488L407.809 44.664ZM414.977 40.568L414.012 38.8161L413.998 38.8237L413.984 38.8315L414.977 40.568ZM381.824 5.24V3.24H379.824V5.24H381.824ZM381.824 91V93H383.824V91H381.824ZM377.984 91H375.984V93H377.984V91ZM377.984 1.39999V-0.600006H375.984V1.39999H377.984ZM419.073 7.672L417.892 9.28634L417.9 9.29212L417.908 9.29782L419.073 7.672ZM416.897 43.896L417.872 45.6419L417.873 45.6414L416.897 43.896ZM412.544 46.328L411.569 44.5821L410.083 45.4124L410.665 47.0119L412.544 46.328ZM428.801 91V93H431.657L430.68 90.3161L428.801 91ZM387.969 91H385.969V93H387.969V91ZM387.969 89.16H423.297V85.16H387.969V89.16ZM425.176 86.4751L409.688 43.9791L405.929 45.3488L421.417 87.8448L425.176 86.4751ZM408.801 46.4005L415.969 42.3045L413.984 38.8315L406.816 42.9275L408.801 46.4005ZM415.941 42.3199C419.165 40.5447 421.66 38.1965 423.338 35.2547C425.012 32.3184 425.809 28.902 425.809 25.08H421.809C421.809 28.3406 421.133 31.0469 419.863 33.2733C418.597 35.4942 416.676 37.3486 414.012 38.8161L415.941 42.3199ZM425.809 25.08C425.809 17.8712 423.014 12.2457 417.354 8.52831C411.841 4.90729 403.825 3.24 393.6 3.24V7.24C403.515 7.24 410.603 8.87938 415.159 11.8717C419.568 14.7677 421.809 19.0622 421.809 25.08H425.809ZM393.6 3.24H381.824V7.24H393.6V3.24ZM379.824 5.24V91H383.824V5.24H379.824ZM381.824 89H377.984V93H381.824V89ZM379.984 91V1.39999H375.984V91H379.984ZM377.984 3.39999H393.6V-0.600006H377.984V3.39999ZM393.6 3.39999C404.672 3.39999 412.666 5.46453 417.892 9.28634L420.253 6.05766C414.044 1.51679 405.057 -0.600006 393.6 -0.600006V3.39999ZM417.908 9.29782C423.06 12.9894 425.648 18.1643 425.648 25.08H429.648C429.648 16.977 426.519 10.5466 420.237 6.04617L417.908 9.29782ZM425.648 25.08C425.648 29.062 424.814 32.4086 423.224 35.1917C421.636 37.9709 419.231 40.2978 415.92 42.1506L417.873 45.6414C421.73 43.4835 424.701 40.669 426.697 37.1763C428.691 33.6874 429.648 29.6313 429.648 25.08H425.648ZM415.921 42.1501L411.569 44.5821L413.52 48.0739L417.872 45.6419L415.921 42.1501ZM410.665 47.0119L426.921 91.6839L430.68 90.3161L414.424 45.6441L410.665 47.0119ZM428.801 89H387.969V93H428.801V89ZM389.969 91V87.16H385.969V91H389.969Z" fill="white"/>
</svg>
