<svg width="1440" height="490" viewBox="0 0 1440 490" fill="none" xmlns="http://www.w3.org/2000/svg">
<path fill-rule="evenodd" clip-rule="evenodd" d="M0 0L20 36C40 72 80 144 120 144C160 144 200 72 240 51C280 29 320 58 360 123C400 187 440 288 480 303C520 317 537.5 237.5 577.5 187.5C617.5 136.5 657.5 94 697.5 87C737.5 80 800 115 840 123C880 130 920 130 960 137C1000 144 1040 159 1080 137C1120 115 1160 58 1200 87C1240 115 1280 231 1320 274C1360 317 1400 288 1420 274L1440 259V489.5H1420C1400 489.5 1360 489.5 1320 489.5C1280 489.5 1240 489.5 1200 489.5C1160 489.5 1120 489.5 1080 489.5C1040 489.5 1000 489.5 960 489.5C920 489.5 880 489.5 840 489.5C800 489.5 760 489.5 720 489.5C680 489.5 640 489.5 600 489.5C560 489.5 520 489.5 480 489.5C440 489.5 400 489.5 360 489.5C320 489.5 280 489.5 240 489.5C200 489.5 160 489.5 120 489.5C80 489.5 40 489.5 20 489.5H0V0Z" fill="#2D55FF"/>
</svg>
