<svg id="visual" viewBox="0 0 1920 615" width="1920" height="615" xmlns="http://www.w3.org/2000/svg" xmlns:xlink="http://www.w3.org/1999/xlink" version="1.1"><path d="M0 328L40 328.2C80 328.3 160 328.7 240 342.7C320 356.7 400 384.3 480 388.5C560 392.7 640 373.3 720 356.7C800 340 880 326 960 326.7C1040 327.3 1120 342.7 1200 357.5C1280 372.3 1360 386.7 1440 387.2C1520 387.7 1600 374.3 1680 359.3C1760 344.3 1840 327.7 1880 319.3L1920 311L1920 616L1880 616C1840 616 1760 616 1680 616C1600 616 1520 616 1440 616C1360 616 1280 616 1200 616C1120 616 1040 616 960 616C880 616 800 616 720 616C640 616 560 616 480 616C400 616 320 616 240 616C160 616 80 616 40 616L0 616Z" fill="#8b6df0"></path><path d="M0 412L40 417.5C80 423 160 434 240 437C320 440 400 435 480 422C560 409 640 388 720 388C800 388 880 409 960 414.2C1040 419.3 1120 408.7 1200 402.7C1280 396.7 1360 395.3 1440 394.7C1520 394 1600 394 1680 391C1760 388 1840 382 1880 379L1920 376L1920 616L1880 616C1840 616 1760 616 1680 616C1600 616 1520 616 1440 616C1360 616 1280 616 1200 616C1120 616 1040 616 960 616C880 616 800 616 720 616C640 616 560 616 480 616C400 616 320 616 240 616C160 616 80 616 40 616L0 616Z" fill="#6f4be9"></path><path d="M0 486L40 479.5C80 473 160 460 240 456.3C320 452.7 400 458.3 480 458.2C560 458 640 452 720 448.3C800 444.7 880 443.3 960 449.5C1040 455.7 1120 469.3 1200 477.5C1280 485.7 1360 488.3 1440 479.3C1520 470.3 1600 449.7 1680 443C1760 436.3 1840 443.7 1880 447.3L1920 451L1920 616L1880 616C1840 616 1760 616 1680 616C1600 616 1520 616 1440 616C1360 616 1280 616 1200 616C1120 616 1040 616 960 616C880 616 800 616 720 616C640 616 560 616 480 616C400 616 320 616 240 616C160 616 80 616 40 616L0 616Z" fill="#4e24e1"></path><path d="M0 482L40 487.8C80 493.7 160 505.3 240 511.2C320 517 400 517 480 514C560 511 640 505 720 509.7C800 514.3 880 529.7 960 535.3C1040 541 1120 537 1200 535.5C1280 534 1360 535 1440 532C1520 529 1600 522 1680 519.7C1760 517.3 1840 519.7 1880 520.8L1920 522L1920 616L1880 616C1840 616 1760 616 1680 616C1600 616 1520 616 1440 616C1360 616 1280 616 1200 616C1120 616 1040 616 960 616C880 616 800 616 720 616C640 616 560 616 480 616C400 616 320 616 240 616C160 616 80 616 40 616L0 616Z" fill="#4221c3"></path><path d="M0 572L40 571.7C80 571.3 160 570.7 240 565.7C320 560.7 400 551.3 480 545C560 538.7 640 535.3 720 535.5C800 535.7 880 539.3 960 541.5C1040 543.7 1120 544.3 1200 543.8C1280 543.3 1360 541.7 1440 544.3C1520 547 1600 554 1680 555.5C1760 557 1840 553 1880 551L1920 549L1920 616L1880 616C1840 616 1760 616 1680 616C1600 616 1520 616 1440 616C1360 616 1280 616 1200 616C1120 616 1040 616 960 616C880 616 800 616 720 616C640 616 560 616 480 616C400 616 320 616 240 616C160 616 80 616 40 616L0 616Z" fill="#371da5"></path></svg>